<svg xmlns="http://www.w3.org/2000/svg" xmlns:xlink="http://www.w3.org/1999/xlink" width="500" zoomAndPan="magnify" viewBox="0 0 375 374.999991" height="500" preserveAspectRatio="xMidYMid meet" version="1.0"><defs><g/><clipPath id="1bca7ed82c"><rect x="0" width="167" y="0" height="254"/></clipPath></defs><rect x="-37.5" width="450" fill="#ffffff" y="-37.499999" height="449.999989" fill-opacity="1"/><rect x="-37.5" width="450" fill="#ffffff" y="-37.499999" height="449.999989" fill-opacity="1"/><g transform="matrix(1, 0, 0, 1, 110, 51)"><g clip-path="url(#1bca7ed82c)"><g fill="#ffffff" fill-opacity="1"><g transform="translate(0.879686, 199.046944)"><g><path d="M 6.632812 0 L 6.632812 -147.800781 L 47.257812 -147.800781 L 47.257812 -86.863281 L 39.492188 -86.863281 L 40.945312 -94.492188 L 42.847656 -94.132812 L 41.394531 -86.5 L 34.96875 -90.863281 C 38.988281 -96.785156 43.957031 -101.371094 49.878906 -104.628906 C 55.875 -107.925781 62.949219 -109.578125 71.101562 -109.578125 C 84.460938 -109.578125 94.667969 -105.574219 101.726562 -97.570312 C 108.527344 -89.851562 111.929688 -78.765625 111.929688 -64.308594 L 111.929688 7.769531 L 71.304688 7.769531 L 71.304688 -61.140625 C 71.304688 -63.851562 71.058594 -66.113281 70.5625 -67.914062 C 70.203125 -69.234375 69.738281 -70.214844 69.171875 -70.855469 C 68 -72.183594 65.714844 -72.84375 62.316406 -72.84375 C 59.859375 -72.84375 57.726562 -72.464844 55.910156 -71.699219 C 54.230469 -70.992188 52.757812 -69.914062 51.488281 -68.46875 C 48.667969 -65.257812 47.257812 -59.671875 47.257812 -51.71875 L 47.257812 7.769531 L 6.632812 7.769531 Z M 22.167969 0 L 14.402344 0 L 14.402344 -7.769531 L 39.492188 -7.769531 L 39.492188 0 L 31.722656 0 L 31.722656 -51.71875 C 31.722656 -63.570312 34.417969 -72.570312 39.8125 -78.71875 C 42.648438 -81.953125 46.007812 -84.386719 49.882812 -86.015625 C 53.625 -87.59375 57.769531 -88.382812 62.316406 -88.382812 C 70.390625 -88.382812 76.558594 -85.964844 80.820312 -81.132812 C 84.835938 -76.585938 86.839844 -69.921875 86.839844 -61.140625 L 86.839844 0 L 79.074219 0 L 79.074219 -7.769531 L 104.164062 -7.769531 L 104.164062 0 L 96.394531 0 L 96.394531 -64.308594 C 96.394531 -74.851562 94.289062 -82.515625 90.070312 -87.296875 C 86.109375 -91.792969 79.785156 -94.039062 71.101562 -94.039062 C 65.609375 -94.039062 61.03125 -93.03125 57.363281 -91.015625 C 53.625 -88.960938 50.441406 -86 47.820312 -82.136719 L 44.953125 -77.914062 L 31.722656 -80.433594 L 31.722656 -140.03125 L 39.492188 -140.03125 L 39.492188 -132.265625 L 14.402344 -132.265625 L 14.402344 -140.03125 L 22.167969 -140.03125 Z M 22.167969 0 "/></g></g></g><g fill="#ffffff" fill-opacity="1"><g transform="translate(117.906046, 199.046944)"><g><path d="M 24.363281 8.671875 C 18.824219 8.671875 14.304688 6.976562 10.804688 3.582031 C 8.996094 1.828125 7.636719 -0.214844 6.730469 -2.554688 C 5.882812 -4.742188 5.457031 -7.121094 5.457031 -9.691406 C 5.457031 -12.226562 5.878906 -14.589844 6.722656 -16.78125 C 7.609375 -19.074219 8.929688 -21.109375 10.679688 -22.886719 C 14.195312 -26.453125 18.753906 -28.238281 24.363281 -28.238281 C 29.964844 -28.238281 34.515625 -26.542969 38.015625 -23.148438 C 39.824219 -21.394531 41.183594 -19.347656 42.089844 -17.007812 C 42.941406 -14.820312 43.363281 -12.441406 43.363281 -9.871094 C 43.363281 -7.300781 42.933594 -4.910156 42.078125 -2.707031 C 41.167969 -0.375 39.8125 1.675781 38.011719 3.449219 C 34.480469 6.933594 29.929688 8.671875 24.363281 8.671875 Z M 24.363281 -6.863281 C 25.683594 -6.863281 26.601562 -7.113281 27.109375 -7.617188 C 27.589844 -8.089844 27.828125 -8.839844 27.828125 -9.871094 C 27.828125 -10.882812 27.621094 -11.589844 27.199219 -11.996094 C 26.714844 -12.464844 25.769531 -12.703125 24.363281 -12.703125 C 23.089844 -12.703125 22.21875 -12.464844 21.746094 -11.984375 C 21.242188 -11.472656 20.992188 -10.710938 20.992188 -9.691406 C 20.992188 -8.683594 21.203125 -7.976562 21.621094 -7.570312 C 22.105469 -7.097656 23.023438 -6.863281 24.363281 -6.863281 Z M 24.363281 -6.863281 "/></g></g></g><g fill="#0cc0df" fill-opacity="1"><g transform="translate(0.879686, 199.046944)"><g><path d="M 14.40625 0 L 14.40625 -140.03125 L 39.484375 -140.03125 L 39.484375 -86.859375 L 41.390625 -86.5 C 44.710938 -91.394531 48.789062 -95.171875 53.625 -97.828125 C 58.457031 -100.484375 64.285156 -101.8125 71.109375 -101.8125 C 93.140625 -101.8125 104.15625 -89.3125 104.15625 -64.3125 L 104.15625 0 L 79.078125 0 L 79.078125 -61.140625 C 79.078125 -67.960938 77.71875 -72.910156 75 -75.984375 C 72.28125 -79.066406 68.050781 -80.609375 62.3125 -80.609375 C 55.3125 -80.609375 49.753906 -78.269531 45.640625 -73.59375 C 41.535156 -68.914062 39.484375 -61.625 39.484375 -51.71875 L 39.484375 0 Z M 14.40625 0 "/></g></g></g><g fill="#7ed957" fill-opacity="1"><g transform="translate(117.906046, 199.046944)"><g><path d="M 24.359375 0.90625 C 20.921875 0.90625 18.203125 -0.0546875 16.203125 -1.984375 C 14.210938 -3.921875 13.21875 -6.488281 13.21875 -9.6875 C 13.21875 -12.832031 14.210938 -15.414062 16.203125 -17.4375 C 18.203125 -19.457031 20.921875 -20.46875 24.359375 -20.46875 C 27.867188 -20.46875 30.617188 -19.5 32.609375 -17.5625 C 34.597656 -15.632812 35.59375 -13.070312 35.59375 -9.875 C 35.59375 -6.675781 34.582031 -4.078125 32.5625 -2.078125 C 30.539062 -0.0859375 27.804688 0.90625 24.359375 0.90625 Z M 24.359375 0.90625 "/></g></g></g></g></g></svg>